<svg width="202" height="202" viewBox="0 0 202 202" fill="none" xmlns="http://www.w3.org/2000/svg">
<g style="mix-blend-mode:luminosity" opacity="0.05">
<path opacity="0.4" d="M101 33.6667C135.34 33.6667 163.704 59.3375 167.828 92.5833H133.657C129.869 78.0225 116.655 67.3333 101 67.3333C85.345 67.3333 72.1308 78.0225 68.4275 92.5833H34.1717C38.2958 59.3375 66.66 33.6667 101 33.6667Z" fill="black"/>
<path d="M101 16.8333C54.54 16.8333 16.8333 54.54 16.8333 101C16.8333 147.46 54.54 185.167 101 185.167C147.46 185.167 185.167 147.46 185.167 101C185.167 54.54 147.46 16.8333 101 16.8333ZM101 33.6667C135.34 33.6667 163.704 59.3375 167.828 92.5833H133.657C129.869 78.0225 116.655 67.3333 101 67.3333C85.345 67.3333 72.1308 78.0225 68.4275 92.5833H34.1717C38.2958 59.3375 66.66 33.6667 101 33.6667ZM117.833 101C117.833 110.258 110.258 117.833 101 117.833C91.7417 117.833 84.1667 110.258 84.1667 101C84.1667 91.7417 91.7417 84.1667 101 84.1667C110.258 84.1667 117.833 91.7417 117.833 101ZM101 168.333C66.66 168.333 38.2958 142.662 34.1717 109.417H68.3433C72.0467 123.977 85.2608 134.667 100.916 134.667C116.571 134.667 129.785 123.977 133.488 109.417H167.66C163.704 142.662 135.34 168.333 101 168.333Z" fill="black"/>
</g>
</svg>
