<svg width="8" height="12" viewBox="0 0 8 12" fill="none" xmlns="http://www.w3.org/2000/svg">
<path d="M3.33334 12V10.6667H2.00001V9.33332H3.33334V7.93332C2.45557 7.77777 1.73623 7.35821 1.17534 6.67466C0.61401 5.99155 0.333344 5.19999 0.333344 4.29999C0.333344 3.28888 0.691788 2.43066 1.40868 1.72532C2.12512 1.01955 2.9889 0.666656 4.00001 0.666656C5.01112 0.666656 5.8749 1.01955 6.59134 1.72532C7.30823 2.43066 7.66668 3.28888 7.66668 4.29999C7.66668 5.19999 7.38623 5.99155 6.82534 6.67466C6.26401 7.35821 5.54445 7.77777 4.66668 7.93332V9.33332H6.00001V10.6667H4.66668V12H3.33334ZM4.00001 6.66666C4.64445 6.66666 5.19446 6.43888 5.65001 5.98332C6.10557 5.52777 6.33334 4.97777 6.33334 4.33332C6.33334 3.68888 6.10557 3.13888 5.65001 2.68332C5.19446 2.22777 4.64445 1.99999 4.00001 1.99999C3.35557 1.99999 2.80557 2.22777 2.35001 2.68332C1.89445 3.13888 1.66668 3.68888 1.66668 4.33332C1.66668 4.97777 1.89445 5.52777 2.35001 5.98332C2.80557 6.43888 3.35557 6.66666 4.00001 6.66666Z" fill="#E31B54"/>
</svg>
