<svg width="93" height="93" viewBox="0 0 93 93" fill="none" xmlns="http://www.w3.org/2000/svg">
<g style="mix-blend-mode:luminosity" opacity="0.02">
<path opacity="0.4" d="M46.5 15.5C62.31 15.5 75.3688 27.3187 77.2675 42.625H61.535C59.7912 35.9212 53.7075 31 46.5 31C39.2925 31 33.2087 35.9212 31.5037 42.625H15.7325C17.6312 27.3187 30.69 15.5 46.5 15.5Z" fill="black"/>
<path d="M46.5 7.75C25.11 7.75 7.75 25.11 7.75 46.5C7.75 67.89 25.11 85.25 46.5 85.25C67.89 85.25 85.25 67.89 85.25 46.5C85.25 25.11 67.89 7.75 46.5 7.75ZM46.5 15.5C62.31 15.5 75.3687 27.3187 77.2675 42.625H61.535C59.7912 35.9212 53.7075 31 46.5 31C39.2925 31 33.2087 35.9212 31.5037 42.625H15.7325C17.6312 27.3187 30.69 15.5 46.5 15.5ZM54.25 46.5C54.25 50.7625 50.7625 54.25 46.5 54.25C42.2375 54.25 38.75 50.7625 38.75 46.5C38.75 42.2375 42.2375 38.75 46.5 38.75C50.7625 38.75 54.25 42.2375 54.25 46.5ZM46.5 77.5C30.69 77.5 17.6312 65.6812 15.7325 50.375H31.465C33.17 57.0787 39.2537 62 46.4612 62C53.6687 62 59.7525 57.0787 61.4575 50.375H77.19C75.3687 65.6812 62.31 77.5 46.5 77.5Z" fill="black"/>
</g>
</svg>
