<svg width="12" height="12" viewBox="0 0 12 12" fill="none" xmlns="http://www.w3.org/2000/svg">
<path d="M11.3333 0.666656V4.66666H9.99999V2.94999L7.34999 5.58332C7.5611 5.89443 7.72221 6.22488 7.83332 6.57466C7.94443 6.92488 7.99999 7.28888 7.99999 7.66666C7.99999 8.68888 7.64443 9.55555 6.93332 10.2667C6.22221 10.9778 5.35555 11.3333 4.33332 11.3333C3.3111 11.3333 2.44443 10.9778 1.73332 10.2667C1.02221 9.55555 0.666656 8.68888 0.666656 7.66666C0.666656 6.64443 1.02221 5.77777 1.73332 5.06666C2.44443 4.35555 3.3111 3.99999 4.33332 3.99999C4.69999 3.99999 5.0611 4.05288 5.41666 4.15866C5.77221 4.26399 6.09999 4.42777 6.39999 4.64999L9.04999 1.99999H7.33332V0.666656H11.3333ZM4.33332 5.33332C3.68888 5.33332 3.13888 5.5611 2.68332 6.01666C2.22777 6.47221 1.99999 7.02221 1.99999 7.66666C1.99999 8.3111 2.22777 8.8611 2.68332 9.31666C3.13888 9.77221 3.68888 9.99999 4.33332 9.99999C4.97777 9.99999 5.52777 9.77221 5.98332 9.31666C6.43888 8.8611 6.66666 8.3111 6.66666 7.66666C6.66666 7.02221 6.43888 6.47221 5.98332 6.01666C5.52777 5.5611 4.97777 5.33332 4.33332 5.33332Z" fill="#444CE7"/>
</svg>
